<mxfile host="app.diagrams.net" modified="2022-04-01T18:24:31.733Z" agent="5.0 (Macintosh; Intel Mac OS X 10_15_7) AppleWebKit/537.36 (KHTML, like Gecko) Chrome/98.0.4758.141 Safari/537.36" etag="IGEK7QZhZrIoPFnwaFvs" version="15.9.6" type="github">
  <diagram id="62zyWD5EANdT8vePwER8" name="Page-1">
    <mxGraphModel dx="1864" dy="1660" grid="1" gridSize="10" guides="1" tooltips="1" connect="1" arrows="1" fold="1" page="1" pageScale="1" pageWidth="850" pageHeight="1100" math="0" shadow="0">
      <root>
        <mxCell id="0" />
        <mxCell id="1" parent="0" />
        <mxCell id="_FAGFthzgUM3a1Cwd3UR-1" value="" style="rounded=0;whiteSpace=wrap;html=1;fillColor=#60a917;strokeColor=#2D7600;fontColor=#ffffff;" vertex="1" parent="1">
          <mxGeometry x="40" y="40" width="210" height="610" as="geometry" />
        </mxCell>
        <mxCell id="_FAGFthzgUM3a1Cwd3UR-2" value="3.3v&lt;br&gt;(1)" style="rounded=0;whiteSpace=wrap;html=1;fontSize=6;align=right;verticalAlign=middle;fillColor=#fa6800;fontColor=#000000;strokeColor=#C73500;" vertex="1" parent="1">
          <mxGeometry x="170" y="50" width="30" height="20" as="geometry" />
        </mxCell>
        <mxCell id="_FAGFthzgUM3a1Cwd3UR-3" value="SDA&lt;br&gt;(3)" style="rounded=0;whiteSpace=wrap;html=1;fontSize=6;align=right;verticalAlign=middle;" vertex="1" parent="1">
          <mxGeometry x="170" y="80" width="30" height="20" as="geometry" />
        </mxCell>
        <mxCell id="_FAGFthzgUM3a1Cwd3UR-4" value="SCL&lt;br&gt;(5)" style="rounded=0;whiteSpace=wrap;html=1;fontSize=6;align=right;verticalAlign=middle;" vertex="1" parent="1">
          <mxGeometry x="170" y="110" width="30" height="20" as="geometry" />
        </mxCell>
        <mxCell id="_FAGFthzgUM3a1Cwd3UR-5" value="GPIO 4&lt;br&gt;(7)" style="rounded=0;whiteSpace=wrap;html=1;fontSize=6;align=right;verticalAlign=middle;" vertex="1" parent="1">
          <mxGeometry x="170" y="140" width="30" height="20" as="geometry" />
        </mxCell>
        <mxCell id="_FAGFthzgUM3a1Cwd3UR-6" value="GND&lt;br&gt;(9)" style="rounded=0;whiteSpace=wrap;html=1;fontSize=6;align=right;verticalAlign=middle;fillColor=#647687;fontColor=#ffffff;strokeColor=#314354;" vertex="1" parent="1">
          <mxGeometry x="170" y="170" width="30" height="20" as="geometry" />
        </mxCell>
        <mxCell id="_FAGFthzgUM3a1Cwd3UR-7" value="GPIO 17 (11)" style="rounded=0;whiteSpace=wrap;html=1;fontSize=6;align=right;verticalAlign=middle;" vertex="1" parent="1">
          <mxGeometry x="170" y="200" width="30" height="20" as="geometry" />
        </mxCell>
        <mxCell id="_FAGFthzgUM3a1Cwd3UR-8" value="GPIO 27&lt;br&gt;(13)" style="rounded=0;whiteSpace=wrap;html=1;fontSize=6;align=right;verticalAlign=middle;" vertex="1" parent="1">
          <mxGeometry x="170" y="230" width="30" height="20" as="geometry" />
        </mxCell>
        <mxCell id="_FAGFthzgUM3a1Cwd3UR-9" value="GPIO 22 (15)" style="rounded=0;whiteSpace=wrap;html=1;fontSize=6;align=right;verticalAlign=middle;" vertex="1" parent="1">
          <mxGeometry x="170" y="260" width="30" height="20" as="geometry" />
        </mxCell>
        <mxCell id="_FAGFthzgUM3a1Cwd3UR-10" value="3.3v&lt;br&gt;(17)" style="rounded=0;whiteSpace=wrap;html=1;fontSize=6;align=right;verticalAlign=middle;fillColor=#fa6800;fontColor=#000000;strokeColor=#C73500;" vertex="1" parent="1">
          <mxGeometry x="170" y="290" width="30" height="20" as="geometry" />
        </mxCell>
        <mxCell id="_FAGFthzgUM3a1Cwd3UR-11" value="GPIO 10&lt;br&gt;(19)" style="rounded=0;whiteSpace=wrap;html=1;fontSize=6;align=right;verticalAlign=middle;" vertex="1" parent="1">
          <mxGeometry x="170" y="320" width="30" height="20" as="geometry" />
        </mxCell>
        <mxCell id="_FAGFthzgUM3a1Cwd3UR-12" value="GPIO 9&lt;br&gt;(21)" style="rounded=0;whiteSpace=wrap;html=1;fontSize=6;align=right;verticalAlign=middle;" vertex="1" parent="1">
          <mxGeometry x="170" y="350" width="30" height="20" as="geometry" />
        </mxCell>
        <mxCell id="_FAGFthzgUM3a1Cwd3UR-13" value="GPIO 11&lt;br&gt;(23)" style="rounded=0;whiteSpace=wrap;html=1;fontSize=6;align=right;verticalAlign=middle;" vertex="1" parent="1">
          <mxGeometry x="170" y="380" width="30" height="20" as="geometry" />
        </mxCell>
        <mxCell id="_FAGFthzgUM3a1Cwd3UR-14" value="GND&lt;br&gt;(25)" style="rounded=0;whiteSpace=wrap;html=1;fontSize=6;align=right;verticalAlign=middle;fillColor=#647687;fontColor=#ffffff;strokeColor=#314354;" vertex="1" parent="1">
          <mxGeometry x="170" y="410" width="30" height="20" as="geometry" />
        </mxCell>
        <mxCell id="_FAGFthzgUM3a1Cwd3UR-15" value="ID_SD&lt;br&gt;(27)" style="rounded=0;whiteSpace=wrap;html=1;fontSize=6;align=right;verticalAlign=middle;" vertex="1" parent="1">
          <mxGeometry x="170" y="440" width="30" height="20" as="geometry" />
        </mxCell>
        <mxCell id="_FAGFthzgUM3a1Cwd3UR-16" value="GPIO 5&lt;br&gt;(29)" style="rounded=0;whiteSpace=wrap;html=1;fontSize=6;align=right;verticalAlign=middle;" vertex="1" parent="1">
          <mxGeometry x="170" y="470" width="30" height="20" as="geometry" />
        </mxCell>
        <mxCell id="_FAGFthzgUM3a1Cwd3UR-17" value="GPIO 6&lt;br&gt;(31)" style="rounded=0;whiteSpace=wrap;html=1;fontSize=6;align=right;verticalAlign=middle;" vertex="1" parent="1">
          <mxGeometry x="170" y="500" width="30" height="20" as="geometry" />
        </mxCell>
        <mxCell id="_FAGFthzgUM3a1Cwd3UR-18" value="GPIO 13&lt;br&gt;(33)" style="rounded=0;whiteSpace=wrap;html=1;fontSize=6;align=right;verticalAlign=middle;" vertex="1" parent="1">
          <mxGeometry x="170" y="530" width="30" height="20" as="geometry" />
        </mxCell>
        <mxCell id="_FAGFthzgUM3a1Cwd3UR-19" value="GPIO 19&lt;br&gt;(35)" style="rounded=0;whiteSpace=wrap;html=1;fontSize=6;align=right;verticalAlign=middle;" vertex="1" parent="1">
          <mxGeometry x="170" y="560" width="30" height="20" as="geometry" />
        </mxCell>
        <mxCell id="_FAGFthzgUM3a1Cwd3UR-20" value="GPIO 26&lt;br&gt;(37)" style="rounded=0;whiteSpace=wrap;html=1;fontSize=6;align=right;verticalAlign=middle;" vertex="1" parent="1">
          <mxGeometry x="170" y="590" width="30" height="20" as="geometry" />
        </mxCell>
        <mxCell id="_FAGFthzgUM3a1Cwd3UR-21" value="GND&lt;br&gt;(39)" style="rounded=0;whiteSpace=wrap;html=1;fontSize=6;align=right;verticalAlign=middle;labelBackgroundColor=none;fontColor=#ffffff;fillColor=#647687;strokeColor=#314354;" vertex="1" parent="1">
          <mxGeometry x="170" y="620" width="30" height="20" as="geometry" />
        </mxCell>
        <mxCell id="_FAGFthzgUM3a1Cwd3UR-22" value="5v&lt;br&gt;(2)" style="rounded=0;whiteSpace=wrap;html=1;fontSize=6;align=left;verticalAlign=middle;fillColor=#e51400;fontColor=#ffffff;strokeColor=#B20000;" vertex="1" parent="1">
          <mxGeometry x="210" y="50" width="30" height="20" as="geometry" />
        </mxCell>
        <mxCell id="_FAGFthzgUM3a1Cwd3UR-23" value="5v&lt;br&gt;(4)" style="rounded=0;whiteSpace=wrap;html=1;fontSize=6;align=left;verticalAlign=middle;fillColor=#e51400;fontColor=#ffffff;strokeColor=#B20000;" vertex="1" parent="1">
          <mxGeometry x="210" y="80" width="30" height="20" as="geometry" />
        </mxCell>
        <mxCell id="_FAGFthzgUM3a1Cwd3UR-24" value="GND&lt;br&gt;(6)" style="rounded=0;whiteSpace=wrap;html=1;fontSize=6;align=left;verticalAlign=middle;fillColor=#647687;fontColor=#ffffff;strokeColor=#314354;" vertex="1" parent="1">
          <mxGeometry x="210" y="110" width="30" height="20" as="geometry" />
        </mxCell>
        <mxCell id="_FAGFthzgUM3a1Cwd3UR-25" value="GPIO 14&lt;br&gt;(8) - TX" style="rounded=0;whiteSpace=wrap;html=1;fontSize=6;align=left;verticalAlign=middle;fillColor=#fff2cc;strokeColor=#d6b656;" vertex="1" parent="1">
          <mxGeometry x="210" y="140" width="30" height="20" as="geometry" />
        </mxCell>
        <mxCell id="_FAGFthzgUM3a1Cwd3UR-26" value="GPIO 15&lt;br&gt;(10) - RX" style="rounded=0;whiteSpace=wrap;html=1;fontSize=6;align=left;verticalAlign=middle;fillColor=#b1ddf0;strokeColor=#10739e;" vertex="1" parent="1">
          <mxGeometry x="210" y="170" width="30" height="20" as="geometry" />
        </mxCell>
        <mxCell id="_FAGFthzgUM3a1Cwd3UR-27" value="GPIO 18&lt;br&gt;(12)" style="rounded=0;whiteSpace=wrap;html=1;fontSize=6;align=left;verticalAlign=middle;" vertex="1" parent="1">
          <mxGeometry x="210" y="200" width="30" height="20" as="geometry" />
        </mxCell>
        <mxCell id="_FAGFthzgUM3a1Cwd3UR-28" value="GND&lt;br&gt;(14)" style="rounded=0;whiteSpace=wrap;html=1;fontSize=6;align=left;verticalAlign=middle;fillColor=#647687;fontColor=#ffffff;strokeColor=#314354;" vertex="1" parent="1">
          <mxGeometry x="210" y="230" width="30" height="20" as="geometry" />
        </mxCell>
        <mxCell id="_FAGFthzgUM3a1Cwd3UR-29" value="GPIO 23&lt;br&gt;(16)" style="rounded=0;whiteSpace=wrap;html=1;fontSize=6;align=left;verticalAlign=middle;" vertex="1" parent="1">
          <mxGeometry x="210" y="260" width="30" height="20" as="geometry" />
        </mxCell>
        <mxCell id="_FAGFthzgUM3a1Cwd3UR-30" value="GPIO 24&lt;br&gt;(18)" style="rounded=0;whiteSpace=wrap;html=1;fontSize=6;align=left;verticalAlign=middle;" vertex="1" parent="1">
          <mxGeometry x="210" y="290" width="30" height="20" as="geometry" />
        </mxCell>
        <mxCell id="_FAGFthzgUM3a1Cwd3UR-31" value="GND&lt;br&gt;(20)" style="rounded=0;whiteSpace=wrap;html=1;fontSize=6;align=left;verticalAlign=middle;fillColor=#647687;fontColor=#ffffff;strokeColor=#314354;" vertex="1" parent="1">
          <mxGeometry x="210" y="320" width="30" height="20" as="geometry" />
        </mxCell>
        <mxCell id="_FAGFthzgUM3a1Cwd3UR-32" value="GPIO 25&lt;br&gt;(22)" style="rounded=0;whiteSpace=wrap;html=1;fontSize=6;align=left;verticalAlign=middle;" vertex="1" parent="1">
          <mxGeometry x="210" y="350" width="30" height="20" as="geometry" />
        </mxCell>
        <mxCell id="_FAGFthzgUM3a1Cwd3UR-33" value="GPIO 8&lt;br&gt;(24)" style="rounded=0;whiteSpace=wrap;html=1;fontSize=6;align=left;verticalAlign=middle;" vertex="1" parent="1">
          <mxGeometry x="210" y="380" width="30" height="20" as="geometry" />
        </mxCell>
        <mxCell id="_FAGFthzgUM3a1Cwd3UR-34" value="GPIO 7&lt;br&gt;(26)" style="rounded=0;whiteSpace=wrap;html=1;fontSize=6;align=left;verticalAlign=middle;" vertex="1" parent="1">
          <mxGeometry x="210" y="410" width="30" height="20" as="geometry" />
        </mxCell>
        <mxCell id="_FAGFthzgUM3a1Cwd3UR-35" value="ID_SC&lt;br&gt;(28)" style="rounded=0;whiteSpace=wrap;html=1;fontSize=6;align=left;verticalAlign=middle;" vertex="1" parent="1">
          <mxGeometry x="210" y="440" width="30" height="20" as="geometry" />
        </mxCell>
        <mxCell id="_FAGFthzgUM3a1Cwd3UR-36" value="GND&lt;br&gt;(30)" style="rounded=0;whiteSpace=wrap;html=1;fontSize=6;align=left;verticalAlign=middle;fillColor=#647687;fontColor=#ffffff;strokeColor=#314354;" vertex="1" parent="1">
          <mxGeometry x="210" y="470" width="30" height="20" as="geometry" />
        </mxCell>
        <mxCell id="_FAGFthzgUM3a1Cwd3UR-37" value="GPIO 12&lt;br&gt;(32)" style="rounded=0;whiteSpace=wrap;html=1;fontSize=6;align=left;verticalAlign=middle;" vertex="1" parent="1">
          <mxGeometry x="210" y="500" width="30" height="20" as="geometry" />
        </mxCell>
        <mxCell id="_FAGFthzgUM3a1Cwd3UR-38" value="GND&lt;br&gt;(34)" style="rounded=0;whiteSpace=wrap;html=1;fontSize=6;align=left;verticalAlign=middle;labelBackgroundColor=none;fontColor=#ffffff;fillColor=#647687;strokeColor=#314354;" vertex="1" parent="1">
          <mxGeometry x="210" y="530" width="30" height="20" as="geometry" />
        </mxCell>
        <mxCell id="_FAGFthzgUM3a1Cwd3UR-39" value="GPIO 16&lt;br&gt;(36)" style="rounded=0;whiteSpace=wrap;html=1;fontSize=6;align=left;verticalAlign=middle;" vertex="1" parent="1">
          <mxGeometry x="210" y="560" width="30" height="20" as="geometry" />
        </mxCell>
        <mxCell id="_FAGFthzgUM3a1Cwd3UR-40" value="GPIO 20&lt;br&gt;(38)" style="rounded=0;whiteSpace=wrap;html=1;fontSize=6;align=left;verticalAlign=middle;" vertex="1" parent="1">
          <mxGeometry x="210" y="590" width="30" height="20" as="geometry" />
        </mxCell>
        <mxCell id="_FAGFthzgUM3a1Cwd3UR-41" value="GPIO 21&lt;br&gt;(40)" style="rounded=0;whiteSpace=wrap;html=1;fontSize=6;align=left;verticalAlign=middle;" vertex="1" parent="1">
          <mxGeometry x="210" y="620" width="30" height="20" as="geometry" />
        </mxCell>
        <mxCell id="_FAGFthzgUM3a1Cwd3UR-42" value="" style="rounded=0;whiteSpace=wrap;html=1;labelBackgroundColor=none;fontSize=6;fillColor=#dae8fc;align=left;verticalAlign=middle;strokeColor=#6c8ebf;" vertex="1" parent="1">
          <mxGeometry x="556" y="40" width="294" height="300" as="geometry" />
        </mxCell>
        <mxCell id="_FAGFthzgUM3a1Cwd3UR-144" style="edgeStyle=orthogonalEdgeStyle;rounded=0;orthogonalLoop=1;jettySize=auto;html=1;entryX=0;entryY=0.5;entryDx=0;entryDy=0;strokeWidth=2;fillColor=#fad7ac;strokeColor=#FF8000;" edge="1" parent="1" source="_FAGFthzgUM3a1Cwd3UR-44" target="_FAGFthzgUM3a1Cwd3UR-2">
          <mxGeometry relative="1" as="geometry">
            <Array as="points">
              <mxPoint x="500" y="230" />
              <mxPoint x="500" />
              <mxPoint x="150" />
              <mxPoint x="150" y="60" />
            </Array>
          </mxGeometry>
        </mxCell>
        <mxCell id="_FAGFthzgUM3a1Cwd3UR-146" style="edgeStyle=orthogonalEdgeStyle;rounded=0;orthogonalLoop=1;jettySize=auto;html=1;entryX=0;entryY=0.5;entryDx=0;entryDy=0;strokeColor=#82b366;strokeWidth=2;exitX=0;exitY=0.75;exitDx=0;exitDy=0;fillColor=#d5e8d4;" edge="1" parent="1" source="_FAGFthzgUM3a1Cwd3UR-44" target="_FAGFthzgUM3a1Cwd3UR-47">
          <mxGeometry relative="1" as="geometry">
            <Array as="points">
              <mxPoint x="540" y="235" />
              <mxPoint x="540" y="260" />
            </Array>
          </mxGeometry>
        </mxCell>
        <mxCell id="_FAGFthzgUM3a1Cwd3UR-44" value="VCC" style="rounded=0;whiteSpace=wrap;html=1;fontSize=6;align=right;verticalAlign=middle;fillColor=#fa6800;fontColor=#000000;strokeColor=#C73500;" vertex="1" parent="1">
          <mxGeometry x="566" y="220" width="30" height="20" as="geometry" />
        </mxCell>
        <mxCell id="_FAGFthzgUM3a1Cwd3UR-143" style="edgeStyle=orthogonalEdgeStyle;rounded=0;orthogonalLoop=1;jettySize=auto;html=1;entryX=1;entryY=0.5;entryDx=0;entryDy=0;strokeWidth=2;" edge="1" parent="1" source="_FAGFthzgUM3a1Cwd3UR-46" target="_FAGFthzgUM3a1Cwd3UR-28">
          <mxGeometry relative="1" as="geometry" />
        </mxCell>
        <mxCell id="_FAGFthzgUM3a1Cwd3UR-46" value="GND" style="rounded=0;whiteSpace=wrap;html=1;fontSize=6;align=right;verticalAlign=middle;fillColor=#647687;fontColor=#ffffff;strokeColor=#314354;" vertex="1" parent="1">
          <mxGeometry x="566" y="280" width="30" height="20" as="geometry" />
        </mxCell>
        <mxCell id="_FAGFthzgUM3a1Cwd3UR-47" value="LIGHT" style="rounded=0;whiteSpace=wrap;html=1;fontSize=6;align=right;verticalAlign=middle;" vertex="1" parent="1">
          <mxGeometry x="566" y="250" width="30" height="20" as="geometry" />
        </mxCell>
        <mxCell id="_FAGFthzgUM3a1Cwd3UR-48" value="" style="edgeStyle=orthogonalEdgeStyle;rounded=0;orthogonalLoop=1;jettySize=auto;html=1;entryX=0;entryY=0.5;entryDx=0;entryDy=0;fontSize=12;fontColor=#000000;strokeWidth=2;fillColor=#f5f5f5;strokeColor=#666666;" edge="1" parent="1" source="_FAGFthzgUM3a1Cwd3UR-49" target="_FAGFthzgUM3a1Cwd3UR-13">
          <mxGeometry relative="1" as="geometry">
            <Array as="points">
              <mxPoint x="490" y="200" />
              <mxPoint x="490" y="-20" />
              <mxPoint x="130" y="-20" />
              <mxPoint x="130" y="390" />
            </Array>
          </mxGeometry>
        </mxCell>
        <mxCell id="_FAGFthzgUM3a1Cwd3UR-49" value="CLK" style="rounded=0;whiteSpace=wrap;html=1;fontSize=6;align=right;verticalAlign=middle;" vertex="1" parent="1">
          <mxGeometry x="566" y="190" width="30" height="20" as="geometry" />
        </mxCell>
        <mxCell id="_FAGFthzgUM3a1Cwd3UR-50" style="edgeStyle=orthogonalEdgeStyle;rounded=0;orthogonalLoop=1;jettySize=auto;html=1;entryX=0;entryY=0.5;entryDx=0;entryDy=0;fontSize=12;fontColor=#000000;strokeColor=#CCCC00;strokeWidth=2;" edge="1" parent="1" source="_FAGFthzgUM3a1Cwd3UR-51" target="_FAGFthzgUM3a1Cwd3UR-11">
          <mxGeometry relative="1" as="geometry">
            <Array as="points">
              <mxPoint x="470" y="170" />
              <mxPoint x="470" y="10" />
              <mxPoint x="120" y="10" />
              <mxPoint x="120" y="330" />
            </Array>
          </mxGeometry>
        </mxCell>
        <mxCell id="_FAGFthzgUM3a1Cwd3UR-51" value="DIN" style="rounded=0;whiteSpace=wrap;html=1;fontSize=6;align=right;verticalAlign=middle;" vertex="1" parent="1">
          <mxGeometry x="566" y="160" width="30" height="20" as="geometry" />
        </mxCell>
        <mxCell id="_FAGFthzgUM3a1Cwd3UR-53" style="edgeStyle=orthogonalEdgeStyle;rounded=0;orthogonalLoop=1;jettySize=auto;html=1;entryX=1;entryY=0.5;entryDx=0;entryDy=0;fontSize=12;fontColor=#000000;strokeColor=#0000FF;strokeWidth=2;" edge="1" parent="1" source="_FAGFthzgUM3a1Cwd3UR-54" target="_FAGFthzgUM3a1Cwd3UR-29">
          <mxGeometry relative="1" as="geometry">
            <Array as="points">
              <mxPoint x="460" y="140" />
              <mxPoint x="460" y="270" />
            </Array>
          </mxGeometry>
        </mxCell>
        <mxCell id="_FAGFthzgUM3a1Cwd3UR-54" value="DC" style="rounded=0;whiteSpace=wrap;html=1;fontSize=6;align=right;verticalAlign=middle;" vertex="1" parent="1">
          <mxGeometry x="566" y="130" width="30" height="20" as="geometry" />
        </mxCell>
        <mxCell id="_FAGFthzgUM3a1Cwd3UR-55" style="edgeStyle=orthogonalEdgeStyle;rounded=0;orthogonalLoop=1;jettySize=auto;html=1;entryX=1;entryY=0.5;entryDx=0;entryDy=0;fontSize=12;fontColor=#000000;strokeColor=#B3B3B3;strokeWidth=2;" edge="1" parent="1" source="_FAGFthzgUM3a1Cwd3UR-56" target="_FAGFthzgUM3a1Cwd3UR-33">
          <mxGeometry relative="1" as="geometry">
            <Array as="points">
              <mxPoint x="340" y="110" />
              <mxPoint x="340" y="390" />
            </Array>
          </mxGeometry>
        </mxCell>
        <mxCell id="_FAGFthzgUM3a1Cwd3UR-56" value="CE" style="rounded=0;whiteSpace=wrap;html=1;fontSize=6;align=right;verticalAlign=middle;" vertex="1" parent="1">
          <mxGeometry x="566" y="100" width="30" height="20" as="geometry" />
        </mxCell>
        <mxCell id="_FAGFthzgUM3a1Cwd3UR-57" style="edgeStyle=orthogonalEdgeStyle;rounded=0;orthogonalLoop=1;jettySize=auto;html=1;entryX=1;entryY=0.5;entryDx=0;entryDy=0;fontSize=12;fontColor=#000000;strokeColor=#7F00FF;strokeWidth=2;" edge="1" parent="1" source="_FAGFthzgUM3a1Cwd3UR-58" target="_FAGFthzgUM3a1Cwd3UR-30">
          <mxGeometry relative="1" as="geometry">
            <Array as="points">
              <mxPoint x="440" y="80" />
              <mxPoint x="440" y="300" />
            </Array>
          </mxGeometry>
        </mxCell>
        <mxCell id="_FAGFthzgUM3a1Cwd3UR-58" value="RST" style="rounded=0;whiteSpace=wrap;html=1;fontSize=6;align=right;verticalAlign=middle;" vertex="1" parent="1">
          <mxGeometry x="566" y="70" width="30" height="20" as="geometry" />
        </mxCell>
        <mxCell id="_FAGFthzgUM3a1Cwd3UR-59" value="Nokia 5110 Display" style="text;html=1;strokeColor=none;fillColor=none;align=center;verticalAlign=middle;whiteSpace=wrap;rounded=0;labelBackgroundColor=none;fontSize=12;fontColor=#000000;rotation=90;" vertex="1" parent="1">
          <mxGeometry x="586" y="120" width="140" height="30" as="geometry" />
        </mxCell>
        <mxCell id="_FAGFthzgUM3a1Cwd3UR-60" value="" style="rounded=0;whiteSpace=wrap;html=1;fillColor=#bac8d3;strokeColor=#23445d;" vertex="1" parent="1">
          <mxGeometry x="-400" y="40" width="320" height="320" as="geometry" />
        </mxCell>
        <mxCell id="_FAGFthzgUM3a1Cwd3UR-61" style="edgeStyle=orthogonalEdgeStyle;rounded=0;orthogonalLoop=1;jettySize=auto;html=1;entryX=0;entryY=0.5;entryDx=0;entryDy=0;strokeColor=#0000FF;strokeWidth=2;" edge="1" parent="1" source="_FAGFthzgUM3a1Cwd3UR-62" target="_FAGFthzgUM3a1Cwd3UR-3">
          <mxGeometry relative="1" as="geometry">
            <Array as="points">
              <mxPoint x="-10" y="161" />
              <mxPoint x="-10" y="90" />
            </Array>
          </mxGeometry>
        </mxCell>
        <mxCell id="_FAGFthzgUM3a1Cwd3UR-62" value="SDA&lt;br&gt;(3)" style="rounded=0;whiteSpace=wrap;html=1;fontSize=6;align=right;verticalAlign=middle;" vertex="1" parent="1">
          <mxGeometry x="-180" y="151" width="30" height="20" as="geometry" />
        </mxCell>
        <mxCell id="_FAGFthzgUM3a1Cwd3UR-63" style="edgeStyle=orthogonalEdgeStyle;rounded=0;orthogonalLoop=1;jettySize=auto;html=1;entryX=0;entryY=0.5;entryDx=0;entryDy=0;strokeColor=#7F00FF;strokeWidth=2;" edge="1" parent="1" source="_FAGFthzgUM3a1Cwd3UR-64" target="_FAGFthzgUM3a1Cwd3UR-4">
          <mxGeometry relative="1" as="geometry">
            <Array as="points">
              <mxPoint y="131" />
              <mxPoint y="120" />
            </Array>
          </mxGeometry>
        </mxCell>
        <mxCell id="_FAGFthzgUM3a1Cwd3UR-64" value="SCL&lt;br&gt;(5)" style="rounded=0;whiteSpace=wrap;html=1;fontSize=6;align=right;verticalAlign=middle;" vertex="1" parent="1">
          <mxGeometry x="-180" y="121" width="30" height="20" as="geometry" />
        </mxCell>
        <mxCell id="_FAGFthzgUM3a1Cwd3UR-65" style="edgeStyle=orthogonalEdgeStyle;rounded=0;orthogonalLoop=1;jettySize=auto;html=1;entryX=0;entryY=0.5;entryDx=0;entryDy=0;strokeColor=#000000;strokeWidth=2;" edge="1" parent="1" source="_FAGFthzgUM3a1Cwd3UR-66" target="_FAGFthzgUM3a1Cwd3UR-6">
          <mxGeometry relative="1" as="geometry">
            <Array as="points">
              <mxPoint x="-30" y="101" />
              <mxPoint x="-30" y="180" />
            </Array>
          </mxGeometry>
        </mxCell>
        <mxCell id="_FAGFthzgUM3a1Cwd3UR-66" value="GND&lt;br&gt;(9)" style="rounded=0;whiteSpace=wrap;html=1;fontSize=6;align=right;verticalAlign=middle;fillColor=#647687;fontColor=#ffffff;strokeColor=#314354;" vertex="1" parent="1">
          <mxGeometry x="-180" y="91" width="30" height="20" as="geometry" />
        </mxCell>
        <mxCell id="_FAGFthzgUM3a1Cwd3UR-67" style="edgeStyle=orthogonalEdgeStyle;rounded=0;orthogonalLoop=1;jettySize=auto;html=1;entryX=1;entryY=0.5;entryDx=0;entryDy=0;strokeColor=#FF0000;strokeWidth=2;" edge="1" parent="1" source="_FAGFthzgUM3a1Cwd3UR-68" target="_FAGFthzgUM3a1Cwd3UR-22">
          <mxGeometry relative="1" as="geometry">
            <Array as="points">
              <mxPoint x="-20" y="191" />
              <mxPoint x="-20" y="20" />
              <mxPoint x="260" y="20" />
              <mxPoint x="260" y="60" />
            </Array>
          </mxGeometry>
        </mxCell>
        <mxCell id="_FAGFthzgUM3a1Cwd3UR-68" value="5v&lt;br&gt;(4)" style="rounded=0;whiteSpace=wrap;html=1;fontSize=6;align=right;verticalAlign=middle;fillColor=#e51400;fontColor=#ffffff;strokeColor=#B20000;" vertex="1" parent="1">
          <mxGeometry x="-180" y="181" width="30" height="20" as="geometry" />
        </mxCell>
        <mxCell id="_FAGFthzgUM3a1Cwd3UR-69" value="PiSugar2 Pro" style="text;html=1;strokeColor=none;fillColor=none;align=center;verticalAlign=middle;whiteSpace=wrap;rounded=0;" vertex="1" parent="1">
          <mxGeometry x="-380" y="65" width="110" height="30" as="geometry" />
        </mxCell>
        <mxCell id="_FAGFthzgUM3a1Cwd3UR-70" value="" style="rounded=0;whiteSpace=wrap;html=1;align=right;fillColor=#cce5ff;strokeColor=#36393d;" vertex="1" parent="1">
          <mxGeometry x="-720" y="440" width="640" height="610" as="geometry" />
        </mxCell>
        <mxCell id="_FAGFthzgUM3a1Cwd3UR-71" value="3.3v&lt;br&gt;(1)" style="rounded=0;whiteSpace=wrap;html=1;fontSize=6;align=right;verticalAlign=middle;fillColor=#fa6800;fontColor=#000000;strokeColor=#C73500;" vertex="1" parent="1">
          <mxGeometry x="-160" y="450" width="30" height="20" as="geometry" />
        </mxCell>
        <mxCell id="_FAGFthzgUM3a1Cwd3UR-72" value="SDA&lt;br&gt;(3)" style="rounded=0;whiteSpace=wrap;html=1;fontSize=6;align=right;verticalAlign=middle;" vertex="1" parent="1">
          <mxGeometry x="-160" y="480" width="30" height="20" as="geometry" />
        </mxCell>
        <mxCell id="_FAGFthzgUM3a1Cwd3UR-73" value="SCL&lt;br&gt;(5)" style="rounded=0;whiteSpace=wrap;html=1;fontSize=6;align=right;verticalAlign=middle;" vertex="1" parent="1">
          <mxGeometry x="-160" y="510" width="30" height="20" as="geometry" />
        </mxCell>
        <mxCell id="_FAGFthzgUM3a1Cwd3UR-74" value="GPIO 4&lt;br&gt;(7)" style="rounded=0;whiteSpace=wrap;html=1;fontSize=6;align=right;verticalAlign=middle;" vertex="1" parent="1">
          <mxGeometry x="-160" y="540" width="30" height="20" as="geometry" />
        </mxCell>
        <mxCell id="_FAGFthzgUM3a1Cwd3UR-75" value="GND&lt;br&gt;(9)" style="rounded=0;whiteSpace=wrap;html=1;fontSize=6;align=right;verticalAlign=middle;fillColor=#647687;fontColor=#ffffff;strokeColor=#314354;" vertex="1" parent="1">
          <mxGeometry x="-160" y="570" width="30" height="20" as="geometry" />
        </mxCell>
        <mxCell id="_FAGFthzgUM3a1Cwd3UR-76" value="GPIO 17 (11)" style="rounded=0;whiteSpace=wrap;html=1;fontSize=6;align=right;verticalAlign=middle;" vertex="1" parent="1">
          <mxGeometry x="-160" y="600" width="30" height="20" as="geometry" />
        </mxCell>
        <mxCell id="_FAGFthzgUM3a1Cwd3UR-77" value="GPIO 27&lt;br&gt;(13)" style="rounded=0;whiteSpace=wrap;html=1;fontSize=6;align=right;verticalAlign=middle;" vertex="1" parent="1">
          <mxGeometry x="-160" y="630" width="30" height="20" as="geometry" />
        </mxCell>
        <mxCell id="_FAGFthzgUM3a1Cwd3UR-78" value="GPIO 22 (15)" style="rounded=0;whiteSpace=wrap;html=1;fontSize=6;align=right;verticalAlign=middle;" vertex="1" parent="1">
          <mxGeometry x="-160" y="660" width="30" height="20" as="geometry" />
        </mxCell>
        <mxCell id="_FAGFthzgUM3a1Cwd3UR-79" value="3.3v&lt;br&gt;(17)" style="rounded=0;whiteSpace=wrap;html=1;fontSize=6;align=right;verticalAlign=middle;fillColor=#fa6800;fontColor=#000000;strokeColor=#C73500;" vertex="1" parent="1">
          <mxGeometry x="-160" y="690" width="30" height="20" as="geometry" />
        </mxCell>
        <mxCell id="_FAGFthzgUM3a1Cwd3UR-80" value="GPIO 10&lt;br&gt;(19)" style="rounded=0;whiteSpace=wrap;html=1;fontSize=6;align=right;verticalAlign=middle;" vertex="1" parent="1">
          <mxGeometry x="-160" y="720" width="30" height="20" as="geometry" />
        </mxCell>
        <mxCell id="_FAGFthzgUM3a1Cwd3UR-81" value="GPIO 9&lt;br&gt;(21)" style="rounded=0;whiteSpace=wrap;html=1;fontSize=6;align=right;verticalAlign=middle;" vertex="1" parent="1">
          <mxGeometry x="-160" y="750" width="30" height="20" as="geometry" />
        </mxCell>
        <mxCell id="_FAGFthzgUM3a1Cwd3UR-82" value="GPIO 11&lt;br&gt;(23)" style="rounded=0;whiteSpace=wrap;html=1;fontSize=6;align=right;verticalAlign=middle;" vertex="1" parent="1">
          <mxGeometry x="-160" y="780" width="30" height="20" as="geometry" />
        </mxCell>
        <mxCell id="_FAGFthzgUM3a1Cwd3UR-83" value="GND&lt;br&gt;(25)" style="rounded=0;whiteSpace=wrap;html=1;fontSize=6;align=right;verticalAlign=middle;fillColor=#647687;fontColor=#ffffff;strokeColor=#314354;" vertex="1" parent="1">
          <mxGeometry x="-160" y="810" width="30" height="20" as="geometry" />
        </mxCell>
        <mxCell id="_FAGFthzgUM3a1Cwd3UR-84" value="ID_SD&lt;br&gt;(27)" style="rounded=0;whiteSpace=wrap;html=1;fontSize=6;align=right;verticalAlign=middle;" vertex="1" parent="1">
          <mxGeometry x="-160" y="840" width="30" height="20" as="geometry" />
        </mxCell>
        <mxCell id="_FAGFthzgUM3a1Cwd3UR-85" value="GPIO 5&lt;br&gt;(29)" style="rounded=0;whiteSpace=wrap;html=1;fontSize=6;align=right;verticalAlign=middle;" vertex="1" parent="1">
          <mxGeometry x="-160" y="870" width="30" height="20" as="geometry" />
        </mxCell>
        <mxCell id="_FAGFthzgUM3a1Cwd3UR-86" value="GPIO 6&lt;br&gt;(31)" style="rounded=0;whiteSpace=wrap;html=1;fontSize=6;align=right;verticalAlign=middle;" vertex="1" parent="1">
          <mxGeometry x="-160" y="900" width="30" height="20" as="geometry" />
        </mxCell>
        <mxCell id="_FAGFthzgUM3a1Cwd3UR-87" value="GPIO 13&lt;br&gt;(33)" style="rounded=0;whiteSpace=wrap;html=1;fontSize=6;align=right;verticalAlign=middle;" vertex="1" parent="1">
          <mxGeometry x="-160" y="930" width="30" height="20" as="geometry" />
        </mxCell>
        <mxCell id="_FAGFthzgUM3a1Cwd3UR-88" value="GPIO 19&lt;br&gt;(35)" style="rounded=0;whiteSpace=wrap;html=1;fontSize=6;align=right;verticalAlign=middle;" vertex="1" parent="1">
          <mxGeometry x="-160" y="960" width="30" height="20" as="geometry" />
        </mxCell>
        <mxCell id="_FAGFthzgUM3a1Cwd3UR-89" value="GPIO 26&lt;br&gt;(37)" style="rounded=0;whiteSpace=wrap;html=1;fontSize=6;align=right;verticalAlign=middle;" vertex="1" parent="1">
          <mxGeometry x="-160" y="990" width="30" height="20" as="geometry" />
        </mxCell>
        <mxCell id="_FAGFthzgUM3a1Cwd3UR-90" value="GND&lt;br&gt;(39)" style="rounded=0;whiteSpace=wrap;html=1;fontSize=6;align=right;verticalAlign=middle;labelBackgroundColor=none;fontColor=#ffffff;fillColor=#647687;strokeColor=#314354;" vertex="1" parent="1">
          <mxGeometry x="-160" y="1020" width="30" height="20" as="geometry" />
        </mxCell>
        <mxCell id="_FAGFthzgUM3a1Cwd3UR-91" value="5v&lt;br&gt;(2)" style="rounded=0;whiteSpace=wrap;html=1;fontSize=6;align=left;verticalAlign=middle;fillColor=#e51400;fontColor=#ffffff;strokeColor=#B20000;" vertex="1" parent="1">
          <mxGeometry x="-120" y="450" width="30" height="20" as="geometry" />
        </mxCell>
        <mxCell id="_FAGFthzgUM3a1Cwd3UR-92" style="edgeStyle=orthogonalEdgeStyle;rounded=0;orthogonalLoop=1;jettySize=auto;html=1;entryX=1;entryY=0.5;entryDx=0;entryDy=0;strokeColor=#FF0000;strokeWidth=2;" edge="1" parent="1" source="_FAGFthzgUM3a1Cwd3UR-93" target="_FAGFthzgUM3a1Cwd3UR-23">
          <mxGeometry relative="1" as="geometry">
            <Array as="points">
              <mxPoint x="-10" y="490" />
              <mxPoint x="-10" y="700" />
              <mxPoint x="320" y="700" />
              <mxPoint x="320" y="90" />
            </Array>
          </mxGeometry>
        </mxCell>
        <mxCell id="_FAGFthzgUM3a1Cwd3UR-93" value="5v&lt;br&gt;(4)" style="rounded=0;whiteSpace=wrap;html=1;fontSize=6;align=left;verticalAlign=middle;fillColor=#e51400;fontColor=#ffffff;strokeColor=#B20000;" vertex="1" parent="1">
          <mxGeometry x="-120" y="480" width="30" height="20" as="geometry" />
        </mxCell>
        <mxCell id="_FAGFthzgUM3a1Cwd3UR-94" style="edgeStyle=orthogonalEdgeStyle;rounded=0;orthogonalLoop=1;jettySize=auto;html=1;entryX=1;entryY=0.5;entryDx=0;entryDy=0;strokeColor=#000000;strokeWidth=2;" edge="1" parent="1" source="_FAGFthzgUM3a1Cwd3UR-95" target="_FAGFthzgUM3a1Cwd3UR-24">
          <mxGeometry relative="1" as="geometry">
            <Array as="points">
              <mxPoint y="520" />
              <mxPoint y="690" />
              <mxPoint x="310" y="690" />
              <mxPoint x="310" y="120" />
            </Array>
          </mxGeometry>
        </mxCell>
        <mxCell id="_FAGFthzgUM3a1Cwd3UR-95" value="GND&lt;br&gt;(6)" style="rounded=0;whiteSpace=wrap;html=1;fontSize=6;align=left;verticalAlign=middle;fillColor=#647687;fontColor=#ffffff;strokeColor=#314354;" vertex="1" parent="1">
          <mxGeometry x="-120" y="510" width="30" height="20" as="geometry" />
        </mxCell>
        <mxCell id="_FAGFthzgUM3a1Cwd3UR-96" value="GPIO 14&lt;br&gt;(8) - TX" style="rounded=0;whiteSpace=wrap;html=1;fontSize=6;align=left;verticalAlign=middle;fillColor=#fff2cc;strokeColor=#d6b656;" vertex="1" parent="1">
          <mxGeometry x="-120" y="540" width="30" height="20" as="geometry" />
        </mxCell>
        <mxCell id="_FAGFthzgUM3a1Cwd3UR-97" value="GPIO 15&lt;br&gt;(10) - RX" style="rounded=0;whiteSpace=wrap;html=1;fontSize=6;align=left;verticalAlign=middle;fillColor=#b1ddf0;strokeColor=#10739e;" vertex="1" parent="1">
          <mxGeometry x="-120" y="570" width="30" height="20" as="geometry" />
        </mxCell>
        <mxCell id="_FAGFthzgUM3a1Cwd3UR-98" value="GPIO 18&lt;br&gt;(12)" style="rounded=0;whiteSpace=wrap;html=1;fontSize=6;align=left;verticalAlign=middle;" vertex="1" parent="1">
          <mxGeometry x="-120" y="600" width="30" height="20" as="geometry" />
        </mxCell>
        <mxCell id="_FAGFthzgUM3a1Cwd3UR-99" value="GND&lt;br&gt;(14)" style="rounded=0;whiteSpace=wrap;html=1;fontSize=6;align=left;verticalAlign=middle;fillColor=#647687;fontColor=#ffffff;strokeColor=#314354;" vertex="1" parent="1">
          <mxGeometry x="-120" y="630" width="30" height="20" as="geometry" />
        </mxCell>
        <mxCell id="_FAGFthzgUM3a1Cwd3UR-100" value="GPIO 23&lt;br&gt;(16)" style="rounded=0;whiteSpace=wrap;html=1;fontSize=6;align=left;verticalAlign=middle;" vertex="1" parent="1">
          <mxGeometry x="-120" y="660" width="30" height="20" as="geometry" />
        </mxCell>
        <mxCell id="_FAGFthzgUM3a1Cwd3UR-101" value="GPIO 24&lt;br&gt;(18)" style="rounded=0;whiteSpace=wrap;html=1;fontSize=6;align=left;verticalAlign=middle;" vertex="1" parent="1">
          <mxGeometry x="-120" y="690" width="30" height="20" as="geometry" />
        </mxCell>
        <mxCell id="_FAGFthzgUM3a1Cwd3UR-102" value="GND&lt;br&gt;(20)" style="rounded=0;whiteSpace=wrap;html=1;fontSize=6;align=left;verticalAlign=middle;fillColor=#647687;fontColor=#ffffff;strokeColor=#314354;" vertex="1" parent="1">
          <mxGeometry x="-120" y="720" width="30" height="20" as="geometry" />
        </mxCell>
        <mxCell id="_FAGFthzgUM3a1Cwd3UR-103" value="GPIO 25&lt;br&gt;(22)" style="rounded=0;whiteSpace=wrap;html=1;fontSize=6;align=left;verticalAlign=middle;" vertex="1" parent="1">
          <mxGeometry x="-120" y="750" width="30" height="20" as="geometry" />
        </mxCell>
        <mxCell id="_FAGFthzgUM3a1Cwd3UR-104" value="GPIO 8&lt;br&gt;(24)" style="rounded=0;whiteSpace=wrap;html=1;fontSize=6;align=left;verticalAlign=middle;" vertex="1" parent="1">
          <mxGeometry x="-120" y="780" width="30" height="20" as="geometry" />
        </mxCell>
        <mxCell id="_FAGFthzgUM3a1Cwd3UR-105" value="GPIO 7&lt;br&gt;(26)" style="rounded=0;whiteSpace=wrap;html=1;fontSize=6;align=left;verticalAlign=middle;" vertex="1" parent="1">
          <mxGeometry x="-120" y="810" width="30" height="20" as="geometry" />
        </mxCell>
        <mxCell id="_FAGFthzgUM3a1Cwd3UR-106" value="ID_SC&lt;br&gt;(28)" style="rounded=0;whiteSpace=wrap;html=1;fontSize=6;align=left;verticalAlign=middle;" vertex="1" parent="1">
          <mxGeometry x="-120" y="840" width="30" height="20" as="geometry" />
        </mxCell>
        <mxCell id="_FAGFthzgUM3a1Cwd3UR-107" value="GND&lt;br&gt;(30)" style="rounded=0;whiteSpace=wrap;html=1;fontSize=6;align=left;verticalAlign=middle;fillColor=#647687;fontColor=#ffffff;strokeColor=#314354;" vertex="1" parent="1">
          <mxGeometry x="-120" y="870" width="30" height="20" as="geometry" />
        </mxCell>
        <mxCell id="_FAGFthzgUM3a1Cwd3UR-108" value="GPIO 12&lt;br&gt;(32)" style="rounded=0;whiteSpace=wrap;html=1;fontSize=6;align=left;verticalAlign=middle;" vertex="1" parent="1">
          <mxGeometry x="-120" y="900" width="30" height="20" as="geometry" />
        </mxCell>
        <mxCell id="_FAGFthzgUM3a1Cwd3UR-109" value="GND&lt;br&gt;(34)" style="rounded=0;whiteSpace=wrap;html=1;fontSize=6;align=left;verticalAlign=middle;labelBackgroundColor=none;fontColor=#ffffff;fillColor=#647687;strokeColor=#314354;" vertex="1" parent="1">
          <mxGeometry x="-120" y="930" width="30" height="20" as="geometry" />
        </mxCell>
        <mxCell id="_FAGFthzgUM3a1Cwd3UR-110" value="GPIO 16&lt;br&gt;(36)" style="rounded=0;whiteSpace=wrap;html=1;fontSize=6;align=left;verticalAlign=middle;" vertex="1" parent="1">
          <mxGeometry x="-120" y="960" width="30" height="20" as="geometry" />
        </mxCell>
        <mxCell id="_FAGFthzgUM3a1Cwd3UR-111" value="GPIO 21&lt;br&gt;(40)" style="rounded=0;whiteSpace=wrap;html=1;fontSize=6;align=left;verticalAlign=middle;" vertex="1" parent="1">
          <mxGeometry x="-120" y="1020" width="30" height="20" as="geometry" />
        </mxCell>
        <mxCell id="_FAGFthzgUM3a1Cwd3UR-112" value="GPIO 20&lt;br&gt;(38)" style="rounded=0;whiteSpace=wrap;html=1;fontSize=6;align=left;verticalAlign=middle;" vertex="1" parent="1">
          <mxGeometry x="-120" y="990" width="30" height="20" as="geometry" />
        </mxCell>
        <mxCell id="_FAGFthzgUM3a1Cwd3UR-113" value="SIM7600G" style="text;html=1;strokeColor=none;fillColor=none;align=center;verticalAlign=middle;whiteSpace=wrap;rounded=0;" vertex="1" parent="1">
          <mxGeometry x="-440" y="495" width="60" height="30" as="geometry" />
        </mxCell>
        <mxCell id="_FAGFthzgUM3a1Cwd3UR-114" style="edgeStyle=orthogonalEdgeStyle;rounded=0;orthogonalLoop=1;jettySize=auto;html=1;entryX=1;entryY=0.5;entryDx=0;entryDy=0;strokeColor=#FF0000;strokeWidth=2;fillColor=#e51400;startArrow=classic;startFill=1;" edge="1" parent="1" source="_FAGFthzgUM3a1Cwd3UR-115" target="_FAGFthzgUM3a1Cwd3UR-116">
          <mxGeometry relative="1" as="geometry">
            <Array as="points">
              <mxPoint x="-685" y="1080" />
              <mxPoint x="-655" y="1080" />
            </Array>
          </mxGeometry>
        </mxCell>
        <mxCell id="_FAGFthzgUM3a1Cwd3UR-115" value="3.3v" style="rounded=0;whiteSpace=wrap;html=1;fontSize=6;align=right;verticalAlign=middle;fillColor=#fa6800;fontColor=#000000;strokeColor=#C73500;rotation=90;" vertex="1" parent="1">
          <mxGeometry x="-700" y="1000" width="30" height="20" as="geometry" />
        </mxCell>
        <mxCell id="_FAGFthzgUM3a1Cwd3UR-116" value="VCCIO" style="rounded=0;whiteSpace=wrap;html=1;fontSize=6;align=right;verticalAlign=middle;rotation=90;" vertex="1" parent="1">
          <mxGeometry x="-670" y="1000" width="30" height="20" as="geometry" />
        </mxCell>
        <mxCell id="_FAGFthzgUM3a1Cwd3UR-117" value="5v" style="rounded=0;whiteSpace=wrap;html=1;fontSize=6;align=right;verticalAlign=middle;fillColor=#e51400;fontColor=#ffffff;strokeColor=#B20000;rotation=90;" vertex="1" parent="1">
          <mxGeometry x="-640" y="1000" width="30" height="20" as="geometry" />
        </mxCell>
        <mxCell id="_FAGFthzgUM3a1Cwd3UR-118" value="5v" style="rounded=0;whiteSpace=wrap;html=1;fontSize=6;align=right;verticalAlign=middle;fillColor=#e51400;fontColor=#ffffff;strokeColor=#B20000;rotation=90;" vertex="1" parent="1">
          <mxGeometry x="-610" y="1000" width="30" height="20" as="geometry" />
        </mxCell>
        <mxCell id="_FAGFthzgUM3a1Cwd3UR-119" value="GRD" style="rounded=0;whiteSpace=wrap;html=1;fontSize=6;align=right;verticalAlign=middle;rotation=90;fillColor=#647687;strokeColor=#314354;fontColor=#ffffff;" vertex="1" parent="1">
          <mxGeometry x="-580" y="1000" width="30" height="20" as="geometry" />
        </mxCell>
        <mxCell id="_FAGFthzgUM3a1Cwd3UR-120" style="edgeStyle=orthogonalEdgeStyle;rounded=0;orthogonalLoop=1;jettySize=auto;html=1;strokeWidth=2;entryX=1;entryY=0.5;entryDx=0;entryDy=0;fillColor=#e3c800;strokeColor=#FFFF00;" edge="1" parent="1" source="_FAGFthzgUM3a1Cwd3UR-121" target="_FAGFthzgUM3a1Cwd3UR-26">
          <mxGeometry relative="1" as="geometry">
            <mxPoint x="440" y="420" as="targetPoint" />
            <Array as="points">
              <mxPoint x="-535" y="1080" />
              <mxPoint x="300" y="1080" />
              <mxPoint x="300" y="180" />
            </Array>
          </mxGeometry>
        </mxCell>
        <mxCell id="_FAGFthzgUM3a1Cwd3UR-121" value="TX" style="rounded=0;whiteSpace=wrap;html=1;fontSize=6;align=right;verticalAlign=middle;rotation=90;" vertex="1" parent="1">
          <mxGeometry x="-550" y="1000" width="30" height="20" as="geometry" />
        </mxCell>
        <mxCell id="_FAGFthzgUM3a1Cwd3UR-122" style="edgeStyle=orthogonalEdgeStyle;rounded=0;orthogonalLoop=1;jettySize=auto;html=1;strokeWidth=2;entryX=1;entryY=0.5;entryDx=0;entryDy=0;fillColor=#ffcc99;strokeColor=#FF8000;" edge="1" parent="1" source="_FAGFthzgUM3a1Cwd3UR-123" target="_FAGFthzgUM3a1Cwd3UR-25">
          <mxGeometry relative="1" as="geometry">
            <mxPoint x="470" y="480" as="targetPoint" />
            <Array as="points">
              <mxPoint x="-505" y="1090" />
              <mxPoint x="330" y="1090" />
              <mxPoint x="330" y="150" />
            </Array>
          </mxGeometry>
        </mxCell>
        <mxCell id="_FAGFthzgUM3a1Cwd3UR-123" value="RX" style="rounded=0;whiteSpace=wrap;html=1;fontSize=6;align=right;verticalAlign=middle;rotation=90;" vertex="1" parent="1">
          <mxGeometry x="-520" y="1000" width="30" height="20" as="geometry" />
        </mxCell>
        <mxCell id="_FAGFthzgUM3a1Cwd3UR-124" value="RST" style="rounded=0;whiteSpace=wrap;html=1;fontSize=6;align=right;verticalAlign=middle;rotation=90;" vertex="1" parent="1">
          <mxGeometry x="-490" y="1000" width="30" height="20" as="geometry" />
        </mxCell>
        <mxCell id="_FAGFthzgUM3a1Cwd3UR-125" value="CTS" style="rounded=0;whiteSpace=wrap;html=1;fontSize=6;align=right;verticalAlign=middle;rotation=90;" vertex="1" parent="1">
          <mxGeometry x="-460" y="1000" width="30" height="20" as="geometry" />
        </mxCell>
        <mxCell id="_FAGFthzgUM3a1Cwd3UR-126" value="DTR" style="rounded=0;whiteSpace=wrap;html=1;fontSize=6;align=right;verticalAlign=middle;rotation=90;" vertex="1" parent="1">
          <mxGeometry x="-430" y="1000" width="30" height="20" as="geometry" />
        </mxCell>
        <mxCell id="_FAGFthzgUM3a1Cwd3UR-127" value="DCD" style="rounded=0;whiteSpace=wrap;html=1;fontSize=6;align=right;verticalAlign=middle;rotation=90;" vertex="1" parent="1">
          <mxGeometry x="-400" y="1000" width="30" height="20" as="geometry" />
        </mxCell>
        <mxCell id="_FAGFthzgUM3a1Cwd3UR-128" value="RI" style="rounded=0;whiteSpace=wrap;html=1;fontSize=6;align=right;verticalAlign=middle;rotation=90;" vertex="1" parent="1">
          <mxGeometry x="-370" y="1000" width="30" height="20" as="geometry" />
        </mxCell>
        <mxCell id="_FAGFthzgUM3a1Cwd3UR-129" style="edgeStyle=orthogonalEdgeStyle;rounded=0;orthogonalLoop=1;jettySize=auto;html=1;strokeColor=#FF0080;strokeWidth=2;entryX=0;entryY=0.5;entryDx=0;entryDy=0;" edge="1" parent="1" source="_FAGFthzgUM3a1Cwd3UR-130" target="_FAGFthzgUM3a1Cwd3UR-5">
          <mxGeometry relative="1" as="geometry">
            <mxPoint x="-10" y="440" as="targetPoint" />
            <Array as="points">
              <mxPoint x="-325" y="1070" />
              <mxPoint x="-50" y="1070" />
              <mxPoint x="-50" y="150" />
            </Array>
          </mxGeometry>
        </mxCell>
        <mxCell id="_FAGFthzgUM3a1Cwd3UR-130" value="PWR" style="rounded=0;whiteSpace=wrap;html=1;fontSize=6;align=right;verticalAlign=middle;rotation=90;fillColor=#6d8764;fontColor=#ffffff;strokeColor=#3A5431;" vertex="1" parent="1">
          <mxGeometry x="-340" y="1000" width="30" height="20" as="geometry" />
        </mxCell>
        <mxCell id="_FAGFthzgUM3a1Cwd3UR-131" value="ADC1" style="rounded=0;whiteSpace=wrap;html=1;fontSize=6;align=right;verticalAlign=middle;rotation=90;" vertex="1" parent="1">
          <mxGeometry x="-310" y="1000" width="30" height="20" as="geometry" />
        </mxCell>
        <mxCell id="_FAGFthzgUM3a1Cwd3UR-132" value="IO43" style="rounded=0;whiteSpace=wrap;html=1;fontSize=6;align=right;verticalAlign=middle;rotation=90;" vertex="1" parent="1">
          <mxGeometry x="-280" y="1000" width="30" height="20" as="geometry" />
        </mxCell>
        <mxCell id="_FAGFthzgUM3a1Cwd3UR-133" value="J" style="rounded=0;whiteSpace=wrap;html=1;fontSize=6;align=right;verticalAlign=middle;rotation=90;" vertex="1" parent="1">
          <mxGeometry x="-665" y="900" width="20" height="20" as="geometry" />
        </mxCell>
        <mxCell id="_FAGFthzgUM3a1Cwd3UR-134" style="edgeStyle=orthogonalEdgeStyle;rounded=0;orthogonalLoop=1;jettySize=auto;html=1;entryX=1;entryY=0.5;entryDx=0;entryDy=0;strokeColor=default;strokeWidth=2;startArrow=classic;startFill=1;" edge="1" parent="1" source="_FAGFthzgUM3a1Cwd3UR-135" target="_FAGFthzgUM3a1Cwd3UR-136">
          <mxGeometry relative="1" as="geometry">
            <Array as="points">
              <mxPoint x="-625" y="940" />
              <mxPoint x="-595" y="940" />
            </Array>
          </mxGeometry>
        </mxCell>
        <mxCell id="_FAGFthzgUM3a1Cwd3UR-135" value="J" style="rounded=0;whiteSpace=wrap;html=1;fontSize=6;align=right;verticalAlign=middle;rotation=90;" vertex="1" parent="1">
          <mxGeometry x="-635" y="900" width="20" height="20" as="geometry" />
        </mxCell>
        <mxCell id="_FAGFthzgUM3a1Cwd3UR-136" value="J" style="rounded=0;whiteSpace=wrap;html=1;fontSize=6;align=right;verticalAlign=middle;rotation=90;" vertex="1" parent="1">
          <mxGeometry x="-605" y="900" width="20" height="20" as="geometry" />
        </mxCell>
        <mxCell id="_FAGFthzgUM3a1Cwd3UR-137" value="J" style="rounded=0;whiteSpace=wrap;html=1;fontSize=6;align=right;verticalAlign=middle;rotation=90;" vertex="1" parent="1">
          <mxGeometry x="-575" y="900" width="20" height="20" as="geometry" />
        </mxCell>
        <mxCell id="_FAGFthzgUM3a1Cwd3UR-138" value="J" style="rounded=0;whiteSpace=wrap;html=1;fontSize=6;align=right;verticalAlign=middle;rotation=90;" vertex="1" parent="1">
          <mxGeometry x="-665" y="870" width="20" height="20" as="geometry" />
        </mxCell>
        <mxCell id="_FAGFthzgUM3a1Cwd3UR-139" style="edgeStyle=orthogonalEdgeStyle;rounded=0;orthogonalLoop=1;jettySize=auto;html=1;entryX=0;entryY=0.5;entryDx=0;entryDy=0;strokeColor=#000000;strokeWidth=2;startArrow=classic;startFill=1;" edge="1" parent="1" source="_FAGFthzgUM3a1Cwd3UR-140" target="_FAGFthzgUM3a1Cwd3UR-141">
          <mxGeometry relative="1" as="geometry">
            <Array as="points">
              <mxPoint x="-625" y="850" />
              <mxPoint x="-595" y="850" />
            </Array>
          </mxGeometry>
        </mxCell>
        <mxCell id="_FAGFthzgUM3a1Cwd3UR-140" value="J" style="rounded=0;whiteSpace=wrap;html=1;fontSize=6;align=right;verticalAlign=middle;rotation=90;" vertex="1" parent="1">
          <mxGeometry x="-635" y="870" width="20" height="20" as="geometry" />
        </mxCell>
        <mxCell id="_FAGFthzgUM3a1Cwd3UR-141" value="J" style="rounded=0;whiteSpace=wrap;html=1;fontSize=6;align=right;verticalAlign=middle;rotation=90;" vertex="1" parent="1">
          <mxGeometry x="-605" y="870" width="20" height="20" as="geometry" />
        </mxCell>
        <mxCell id="_FAGFthzgUM3a1Cwd3UR-142" value="J" style="rounded=0;whiteSpace=wrap;html=1;fontSize=6;align=right;verticalAlign=middle;rotation=90;" vertex="1" parent="1">
          <mxGeometry x="-575" y="870" width="20" height="20" as="geometry" />
        </mxCell>
      </root>
    </mxGraphModel>
  </diagram>
</mxfile>
